# xmcd
#
# Track frame offsets:
#	150
#	10168
#	22512
#	34736
#	46143
#	58533
#	73109
#	85697
#	97333
#	115936
#	129169
#	145072
#	159773
#	172033
#	183508
#	193848
#	212201
#	223676
#	233304
#	244550
#
# Disc length: 3383
#
# Revision: 2
# Processed by: cddbd v1.5.1PL0 Copyright (c) Steve Scherf et al.
# Submitted via: Audio-CD-Archiv 2.10.438
# Normalized: r1:TDELIM( - )
#
DISCID=050d3514
DTITLE=60 Songs From The Golden West - Country And Western Hits CD1
DYEAR=1900
DGENRE=country
TTITLE0=Before My Time - Dave Dudley
TTITLE1=It's Hard To Love A Man - Gary Richmond
TTITLE2=Just The Other Side Of Nowhere - Bobby Bare
TTITLE3=Appalachia - The nashville Guitars
TTITLE4=I Need A Friend - David Price
TTITLE5=All That Country Lovin' - Joan Winston
TTITLE6=Hello, I'm A Jukebox - George Kent
TTITLE7=Closer Than Love - Barbara Perry
TTITLE8=Give Me Your Shoulder - Tom Lewis
TTITLE9=All The Good Times - Country Reunion
TTITLE10=Saturday Night It's Allright - early Bird
TTITLE11=Your Foolish Pride - The Nashville Guitar
TTITLE12=Rodeo Drifter - Rick Key
TTITLE13=Done Laid Around - Country Reunion
TTITLE14=Rosie's Leaving - Ronnie Rogers
TTITLE15=Music Brought You Back - Gary Richmond
TTITLE16=Just In Case A Night Like This - Bobby Bare
TTITLE17=Portland Town - Country Reunion
TTITLE18=My Town - Dave Dudley
TTITLE19=Kentucky Buggy - Tom's Country Crew
EXTD=
EXTT0=
EXTT1=
EXTT2=
EXTT3=
EXTT4=
EXTT5=
EXTT6=
EXTT7=
EXTT8=
EXTT9=
EXTT10=
EXTT11=
EXTT12=
EXTT13=
EXTT14=
EXTT15=
EXTT16=
EXTT17=
EXTT18=
EXTT19=
PLAYORDER=
